<?xml version="1.0" encoding="utf-8"?>
<!-- Generator: Adobe Illustrator 23.1.0, SVG Export Plug-In . SVG Version: 6.00 Build 0)  -->
<svg version="1.1" id="Layer_1" xmlns="http://www.w3.org/2000/svg" xmlns:xlink="http://www.w3.org/1999/xlink" x="0px" y="0px"
	 viewBox="0 0 348 348" style="enable-background:new 0 0 348 348;" xml:space="preserve">
<style type="text/css">
	.st0{fill:none;stroke:#000000;stroke-width:2;}
	.st1{fill:#FFFFFF;}
	.st2{fill:none;}
	.st3{font-family:'ArialMT';}
	.st4{font-size:35.9998px;}
	.st5{font-size:36px;}
	.st6{fill:none;stroke:#FFFFFF;stroke-miterlimit:10;}
</style>
<path class="st0" d="M5.1,5.8H342v337.7H5.1V5.8z"/>
<path class="st0" d="M282.7,40.6c0-8.4,7-15.2,15.6-15.2c4.1,0,8.1,1.6,11,4.4s4.6,6.7,4.6,10.7c0,8.4-7,15.2-15.6,15.2
	C289.7,55.7,282.7,48.9,282.7,40.6L282.7,40.6z"/>
<rect x="24.1" y="274.2" class="st0" width="84.2" height="56.3"/>
<rect x="240.6" y="274.2" class="st0" width="84.2" height="56.3"/>
<rect x="132.3" y="274.2" class="st0" width="84.2" height="56.3"/>
<rect x="24.1" y="204.3" class="st0" width="84.2" height="56.3"/>
<rect x="240.6" y="204.3" class="st0" width="84.2" height="56.3"/>
<rect x="132.3" y="204.3" class="st0" width="84.2" height="56.3"/>
<rect x="24.1" y="134.3" class="st0" width="84.2" height="56.3"/>
<rect x="240.6" y="134.3" class="st0" width="84.2" height="56.3"/>
<rect x="132.3" y="134.3" class="st0" width="84.2" height="56.3"/>
<rect x="239.7" y="64.4" class="st0" width="84.2" height="56.3"/>
<rect x="24.1" y="25.4" width="192.5" height="95.3"/>
<circle class="st1" cx="53.9" cy="73" r="10.8"/>
<circle class="st1" cx="80.5" cy="73" r="10.8"/>
<circle class="st1" cx="107.1" cy="73" r="10.8"/>
<circle class="st1" cx="133.9" cy="73" r="10.8"/>
<circle class="st1" cx="160.4" cy="73" r="10.8"/>
<circle class="st1" cx="186.8" cy="73" r="10.8"/>
<rect x="43.6" y="148.4" class="st2" width="42.1" height="28.1"/>
<text transform="matrix(1 0 0 1 52.8623 173.9639)" class="st3 st4">N</text>
<rect x="153.4" y="148.4" class="st2" width="42.1" height="28.1"/>
<text transform="matrix(1 0 0 1 165.6978 173.9639)" class="st3 st5">F</text>
<rect x="260.7" y="78.5" class="st2" width="42.1" height="28.1"/>
<text transform="matrix(1 0 0 1 272.9326 104.0469)" class="st3 st4">S</text>
<rect x="260.7" y="148.4" class="st2" width="42.1" height="28.1"/>
<text transform="matrix(1 0 0 1 270.79 173.9639)" class="st3 st5">A</text>
<rect x="43.6" y="218.3" class="st2" width="42.1" height="28.1"/>
<text transform="matrix(1 0 0 1 52.9702 243.8799)" class="st3 st5">H</text>
<rect x="153.4" y="218.3" class="st2" width="42.1" height="28.1"/>
<text transform="matrix(1 0 0 1 162.8359 243.8799)" class="st3 st5">G</text>
<rect x="260.7" y="218.3" class="st2" width="42.1" height="28.1"/>
<text transform="matrix(1 0 0 1 267.334 243.8799)" class="st3 st5">M</text>
<rect x="43.6" y="288.2" class="st2" width="42.1" height="28.1"/>
<text transform="matrix(1 0 0 1 53.0605 313.7969)" class="st3 st5">U</text>
<rect x="152.9" y="288.2" class="st2" width="42.1" height="28.1"/>
<text transform="matrix(1 0 0 1 161.5977 313.7969)" class="st3 st5">O</text>
<rect x="260.7" y="288.2" class="st2" width="42.1" height="28.1"/>
<text transform="matrix(1 0 0 1 273.3105 313.7969)" class="st3 st5">L</text>
<rect x="67.8" y="53.4" class="st6" width="105.7" height="39.2"/>
</svg>
